{
    "asset" : {
        "generator" : "Khronos glTF Blender I/O v1.7.33",
        "version" : "2.0"
    },
    "scene" : 0,
    "scenes" : [
        {
            "name" : "Scene",
            "nodes" : [
                0
            ]
        }
    ],
    "nodes" : [
        {
            "mesh" : 0,
            "name" : "ButtonNext.001",
            "rotation" : [
                0.7071068286895752,
                0,
                0,
                0.7071068286895752
            ],
            "scale" : [
                0.16469836235046387,
                0.16469836235046387,
                0.16469836235046387
            ],
            "translation" : [
                0.02431666851043701,
                0.3210078477859497,
                0.2946852445602417
            ]
        }
    ],
    "materials" : [
        {
            "doubleSided" : true,
            "name" : "Material.001",
            "pbrMetallicRoughness" : {
                "baseColorTexture" : {
                    "index" : 0
                },
                "metallicFactor" : 0,
                "roughnessFactor" : 0.5
            }
        },
        {
            "doubleSided" : true,
            "name" : "text",
            "pbrMetallicRoughness" : {
                "baseColorFactor" : [
                    0,
                    0,
                    0,
                    1
                ],
                "metallicFactor" : 0,
                "roughnessFactor" : 0.5
            }
        }
    ],
    "meshes" : [
        {
            "name" : "Plane.005",
            "primitives" : [
                {
                    "attributes" : {
                        "POSITION" : 0,
                        "NORMAL" : 1,
                        "TEXCOORD_0" : 2
                    },
                    "indices" : 3,
                    "material" : 0
                },
                {
                    "attributes" : {
                        "POSITION" : 4,
                        "NORMAL" : 5,
                        "TEXCOORD_0" : 6
                    },
                    "indices" : 7,
                    "material" : 1
                }
            ]
        }
    ],
    "textures" : [
        {
            "sampler" : 0,
            "source" : 0
        }
    ],
    "images" : [
        {
            "mimeType" : "image/png",
            "name" : "Start",
            "uri" : "Start.png"
        }
    ],
    "accessors" : [
        {
            "bufferView" : 0,
            "componentType" : 5126,
            "count" : 4440,
            "max" : [
                1.4492878913879395,
                0.15104319155216217,
                0.7401253581047058
            ],
            "min" : [
                -1.712820291519165,
                -1.1359475138306152e-08,
                -0.815420389175415
            ],
            "type" : "VEC3"
        },
        {
            "bufferView" : 1,
            "componentType" : 5126,
            "count" : 4440,
            "type" : "VEC3"
        },
        {
            "bufferView" : 2,
            "componentType" : 5126,
            "count" : 4440,
            "type" : "VEC2"
        },
        {
            "bufferView" : 3,
            "componentType" : 5123,
            "count" : 6828,
            "type" : "SCALAR"
        },
        {
            "bufferView" : 4,
            "componentType" : 5126,
            "count" : 1911,
            "max" : [
                0.3335686922073364,
                0.160955548286438,
                0.13219398260116577
            ],
            "min" : [
                -0.7061927914619446,
                0.160955548286438,
                -0.17916914820671082
            ],
            "type" : "VEC3"
        },
        {
            "bufferView" : 5,
            "componentType" : 5126,
            "count" : 1911,
            "type" : "VEC3"
        },
        {
            "bufferView" : 6,
            "componentType" : 5126,
            "count" : 1911,
            "type" : "VEC2"
        },
        {
            "bufferView" : 7,
            "componentType" : 5123,
            "count" : 2544,
            "type" : "SCALAR"
        }
    ],
    "bufferViews" : [
        {
            "buffer" : 0,
            "byteLength" : 53280,
            "byteOffset" : 0
        },
        {
            "buffer" : 0,
            "byteLength" : 53280,
            "byteOffset" : 53280
        },
        {
            "buffer" : 0,
            "byteLength" : 35520,
            "byteOffset" : 106560
        },
        {
            "buffer" : 0,
            "byteLength" : 13656,
            "byteOffset" : 142080
        },
        {
            "buffer" : 0,
            "byteLength" : 22932,
            "byteOffset" : 155736
        },
        {
            "buffer" : 0,
            "byteLength" : 22932,
            "byteOffset" : 178668
        },
        {
            "buffer" : 0,
            "byteLength" : 15288,
            "byteOffset" : 201600
        },
        {
            "buffer" : 0,
            "byteLength" : 5088,
            "byteOffset" : 216888
        }
    ],
    "samplers" : [
        {
            "magFilter" : 9729,
            "minFilter" : 9987
        }
    ],
    "buffers" : [
        {
            "byteLength" : 221976,
            "uri" : "BStart.bin"
        }
    ]
}
